<svg width="3369" height="2012" xmlns="http://www.w3.org/2000/svg" xmlns:xlink="http://www.w3.org/1999/xlink" xml:space="preserve" overflow="hidden"><g transform="translate(-687 -293)"><g><path d="M0 0 0.000360892 201.378" stroke="#D9D9D9" stroke-width="4.58333" stroke-linecap="butt" stroke-linejoin="miter" stroke-miterlimit="8" stroke-dasharray="18.3333 13.75" stroke-opacity="1" fill="none" fill-rule="evenodd" transform="matrix(1 0 0 -1 1108.5 704.878)"/><path d="M0 0 0.000360892 201.378" stroke="#D9D9D9" stroke-width="4.58333" stroke-linecap="butt" stroke-linejoin="miter" stroke-miterlimit="8" stroke-dasharray="18.3333 13.75" stroke-opacity="1" fill="none" fill-rule="evenodd" transform="matrix(1 0 0 -1 1108.5 1072.88)"/><path d="M0 0 0.000360892 201.378" stroke="#D9D9D9" stroke-width="4.58333" stroke-linecap="butt" stroke-linejoin="miter" stroke-miterlimit="8" stroke-dasharray="18.3333 13.75" stroke-opacity="1" fill="none" fill-rule="evenodd" transform="matrix(1 0 0 -1 1108.5 1392.88)"/><path d="M0 0 0.000360892 201.378" stroke="#D9D9D9" stroke-width="4.58333" stroke-linecap="butt" stroke-linejoin="miter" stroke-miterlimit="8" stroke-dasharray="18.3333 13.75" stroke-opacity="1" fill="none" fill-rule="evenodd" transform="matrix(1 0 0 -1 1108.5 1733.88)"/><path d="M0 0 0.000360892 201.378" stroke="#D9D9D9" stroke-width="4.58333" stroke-linecap="butt" stroke-linejoin="miter" stroke-miterlimit="8" stroke-dasharray="18.3333 13.75" stroke-opacity="1" fill="none" fill-rule="evenodd" transform="matrix(1 0 0 -1 1108.5 2063.88)"/><path d="M846 384.73C846 353.399 871.399 328 902.73 328L1309.27 328C1340.6 328 1366 353.399 1366 384.73L1366 473.27C1366 504.601 1340.6 530 1309.27 530L902.73 530C871.399 530 846 504.601 846 473.27Z" fill="#7F7F7F" fill-rule="evenodd" fill-opacity="1"/><text fill="#FFFFFF" fill-opacity="1" font-family="Avenir Next,Avenir Next_MSFontService,sans-serif" font-style="normal" font-variant="normal" font-weight="400" font-stretch="normal" font-size="64" text-anchor="start" direction="ltr" writing-mode="lr-tb" unicode-bidi="normal" text-decoration="none" transform="matrix(1 0 0 1 1024.22 447)">setup</text><text fill="#7F7F7F" fill-opacity="1" font-family="Avenir Next,Avenir Next_MSFontService,sans-serif" font-style="italic" font-variant="normal" font-weight="400" font-stretch="normal" font-size="64" text-anchor="start" direction="ltr" writing-mode="lr-tb" unicode-bidi="normal" text-decoration="none" transform="matrix(1 0 0 1 1694.2 370)">define timeframe and area of intrest </text><text fill="#7F7F7F" fill-opacity="1" font-family="Avenir Next,Avenir Next_MSFontService,sans-serif" font-style="italic" font-variant="normal" font-weight="400" font-stretch="normal" font-size="64" text-anchor="start" direction="ltr" writing-mode="lr-tb" unicode-bidi="normal" text-decoration="none" transform="matrix(1 0 0 1 1694.2 447)">and if needed, split that into smaller </text><text fill="#7F7F7F" fill-opacity="1" font-family="Avenir Next,Avenir Next_MSFontService,sans-serif" font-style="italic" font-variant="normal" font-weight="400" font-stretch="normal" font-size="64" text-anchor="start" direction="ltr" writing-mode="lr-tb" unicode-bidi="normal" text-decoration="none" transform="matrix(1 0 0 1 1694.2 524)">segments</text><path d="M0 0 298.385 0.000360892" stroke="#D9D9D9" stroke-width="4.58333" stroke-linecap="butt" stroke-linejoin="miter" stroke-miterlimit="8" stroke-opacity="1" fill="none" fill-rule="evenodd" transform="matrix(1 0 0 -1 1376.5 429.5)"/><path d="M846 743.449C846 712.273 871.273 687 902.449 687L1309.55 687C1340.73 687 1366 712.273 1366 743.449L1366 831.551C1366 862.727 1340.73 888 1309.55 888L902.449 888C871.273 888 846 862.727 846 831.551Z" fill="#7F7F7F" fill-rule="evenodd" fill-opacity="1"/><text fill="#FFFFFF" fill-opacity="1" font-family="Avenir Next,Avenir Next_MSFontService,sans-serif" font-style="normal" font-variant="normal" font-weight="400" font-stretch="normal" font-size="64" text-anchor="start" direction="ltr" writing-mode="lr-tb" unicode-bidi="normal" text-decoration="none" transform="matrix(1 0 0 1 1009.89 767)">access </text><text fill="#FFFFFF" fill-opacity="1" font-family="Avenir Next,Avenir Next_MSFontService,sans-serif" font-style="normal" font-variant="normal" font-weight="400" font-stretch="normal" font-size="64" text-anchor="start" direction="ltr" writing-mode="lr-tb" unicode-bidi="normal" text-decoration="none" transform="matrix(1 0 0 1 997.583 844)">catalog</text><text fill="#7F7F7F" fill-opacity="1" font-family="Avenir Next,Avenir Next_MSFontService,sans-serif" font-style="italic" font-variant="normal" font-weight="400" font-stretch="normal" font-size="64" text-anchor="start" direction="ltr" writing-mode="lr-tb" unicode-bidi="normal" text-decoration="none" transform="matrix(1 0 0 1 1694.2 728)">get all timestamps where images have </text><text fill="#7F7F7F" fill-opacity="1" font-family="Avenir Next,Avenir Next_MSFontService,sans-serif" font-style="italic" font-variant="normal" font-weight="400" font-stretch="normal" font-size="64" text-anchor="start" direction="ltr" writing-mode="lr-tb" unicode-bidi="normal" text-decoration="none" transform="matrix(1 0 0 1 1694.2 805)">been taken for the specified area of </text><text fill="#7F7F7F" fill-opacity="1" font-family="Avenir Next,Avenir Next_MSFontService,sans-serif" font-style="italic" font-variant="normal" font-weight="400" font-stretch="normal" font-size="64" text-anchor="start" direction="ltr" writing-mode="lr-tb" unicode-bidi="normal" text-decoration="none" transform="matrix(1 0 0 1 1694.2 882)">intrest</text><path d="M0 0 298.385 0.000360892" stroke="#D9D9D9" stroke-width="4.58333" stroke-linecap="butt" stroke-linejoin="miter" stroke-miterlimit="8" stroke-opacity="1" fill="none" fill-rule="evenodd" transform="matrix(1 0 0 -1 1376.5 788.5)"/><path d="M846 1076.94C846 1043.28 873.285 1016 906.942 1016L1305.06 1016C1338.72 1016 1366 1043.28 1366 1076.94L1366 1172.06C1366 1205.72 1338.72 1233 1305.06 1233L906.942 1233C873.285 1233 846 1205.72 846 1172.06Z" fill="#7F7F7F" fill-rule="evenodd" fill-opacity="1"/><text fill="#FFFFFF" fill-opacity="1" font-family="Avenir Next,Avenir Next_MSFontService,sans-serif" font-style="normal" font-variant="normal" font-weight="400" font-stretch="normal" font-size="64" text-anchor="start" direction="ltr" writing-mode="lr-tb" unicode-bidi="normal" text-decoration="none" transform="matrix(1 0 0 1 885.864 1104)">calculate cloud </text><text fill="#FFFFFF" fill-opacity="1" font-family="Avenir Next,Avenir Next_MSFontService,sans-serif" font-style="normal" font-variant="normal" font-weight="400" font-stretch="normal" font-size="64" text-anchor="start" direction="ltr" writing-mode="lr-tb" unicode-bidi="normal" text-decoration="none" transform="matrix(1 0 0 1 969.602 1181)">coverage</text><text fill="#7F7F7F" fill-opacity="1" font-family="Avenir Next,Avenir Next_MSFontService,sans-serif" font-style="italic" font-variant="normal" font-weight="400" font-stretch="normal" font-size="64" text-anchor="start" direction="ltr" writing-mode="lr-tb" unicode-bidi="normal" text-decoration="none" transform="matrix(1 0 0 1 1694.2 1065)">download the images for all timestamps </text><text fill="#7F7F7F" fill-opacity="1" font-family="Avenir Next,Avenir Next_MSFontService,sans-serif" font-style="italic" font-variant="normal" font-weight="400" font-stretch="normal" font-size="64" text-anchor="start" direction="ltr" writing-mode="lr-tb" unicode-bidi="normal" text-decoration="none" transform="matrix(1 0 0 1 1694.2 1142)">with cloud mask and calculate the cloud </text><text fill="#7F7F7F" fill-opacity="1" font-family="Avenir Next,Avenir Next_MSFontService,sans-serif" font-style="italic" font-variant="normal" font-weight="400" font-stretch="normal" font-size="64" text-anchor="start" direction="ltr" writing-mode="lr-tb" unicode-bidi="normal" text-decoration="none" transform="matrix(1 0 0 1 1694.2 1219)">coverage </text><path d="M0 0 298.385 0.000360892" stroke="#D9D9D9" stroke-width="4.58333" stroke-linecap="butt" stroke-linejoin="miter" stroke-miterlimit="8" stroke-opacity="1" fill="none" fill-rule="evenodd" transform="matrix(1 0 0 -1 1376.5 1125.5)"/><path d="M846 1418.94C846 1385.28 873.285 1358 906.942 1358L1305.06 1358C1338.72 1358 1366 1385.28 1366 1418.94L1366 1514.06C1366 1547.72 1338.72 1575 1305.06 1575L906.942 1575C873.285 1575 846 1547.72 846 1514.06Z" fill="#7F7F7F" fill-rule="evenodd" fill-opacity="1"/><text fill="#FFFFFF" fill-opacity="1" font-family="Avenir Next,Avenir Next_MSFontService,sans-serif" font-style="normal" font-variant="normal" font-weight="400" font-stretch="normal" font-size="64" text-anchor="start" direction="ltr" writing-mode="lr-tb" unicode-bidi="normal" text-decoration="none" transform="matrix(1 0 0 1 943.431 1445)">select valid </text><text fill="#FFFFFF" fill-opacity="1" font-family="Avenir Next,Avenir Next_MSFontService,sans-serif" font-style="normal" font-variant="normal" font-weight="400" font-stretch="normal" font-size="64" text-anchor="start" direction="ltr" writing-mode="lr-tb" unicode-bidi="normal" text-decoration="none" transform="matrix(1 0 0 1 936.281 1522)">timestamps</text><text fill="#7F7F7F" fill-opacity="1" font-family="Avenir Next,Avenir Next_MSFontService,sans-serif" font-style="italic" font-variant="normal" font-weight="400" font-stretch="normal" font-size="64" text-anchor="start" direction="ltr" writing-mode="lr-tb" unicode-bidi="normal" text-decoration="none" transform="matrix(1 0 0 1 1694.2 1407)">based on catalog</text><text fill="#7F7F7F" fill-opacity="1" font-family="Avenir Next,Avenir Next_MSFontService,sans-serif" font-style="italic" font-variant="normal" font-weight="400" font-stretch="normal" font-size="64" text-anchor="start" direction="ltr" writing-mode="lr-tb" unicode-bidi="normal" text-decoration="none" transform="matrix(1 0 0 1 2196.08 1407)">-</text><text fill="#7F7F7F" fill-opacity="1" font-family="Avenir Next,Avenir Next_MSFontService,sans-serif" font-style="italic" font-variant="normal" font-weight="400" font-stretch="normal" font-size="64" text-anchor="start" direction="ltr" writing-mode="lr-tb" unicode-bidi="normal" text-decoration="none" transform="matrix(1 0 0 1 2232.74 1407)">and calculated cloud </text><text fill="#7F7F7F" fill-opacity="1" font-family="Avenir Next,Avenir Next_MSFontService,sans-serif" font-style="italic" font-variant="normal" font-weight="400" font-stretch="normal" font-size="64" text-anchor="start" direction="ltr" writing-mode="lr-tb" unicode-bidi="normal" text-decoration="none" transform="matrix(1 0 0 1 1694.2 1484)">coverage filter out timestamps which </text><text fill="#7F7F7F" fill-opacity="1" font-family="Avenir Next,Avenir Next_MSFontService,sans-serif" font-style="italic" font-variant="normal" font-weight="400" font-stretch="normal" font-size="64" text-anchor="start" direction="ltr" writing-mode="lr-tb" unicode-bidi="normal" text-decoration="none" transform="matrix(1 0 0 1 1694.2 1561)">are too cloudy</text><path d="M0 0 298.385 0.000360892" stroke="#D9D9D9" stroke-width="4.58333" stroke-linecap="butt" stroke-linejoin="miter" stroke-miterlimit="8" stroke-opacity="1" fill="none" fill-rule="evenodd" transform="matrix(1 0 0 -1 1376.5 1466.5)"/><path d="M846 1759.94C846 1726.28 873.285 1699 906.942 1699L1305.06 1699C1338.72 1699 1366 1726.28 1366 1759.94L1366 1855.06C1366 1888.72 1338.72 1916 1305.06 1916L906.942 1916C873.285 1916 846 1888.72 846 1855.06Z" fill="#7F7F7F" fill-rule="evenodd" fill-opacity="1"/><text fill="#FFFFFF" fill-opacity="1" font-family="Avenir Next,Avenir Next_MSFontService,sans-serif" font-style="normal" font-variant="normal" font-weight="400" font-stretch="normal" font-size="64" text-anchor="start" direction="ltr" writing-mode="lr-tb" unicode-bidi="normal" text-decoration="none" transform="matrix(1 0 0 1 958.625 1786)">download </text><text fill="#FFFFFF" fill-opacity="1" font-family="Avenir Next,Avenir Next_MSFontService,sans-serif" font-style="normal" font-variant="normal" font-weight="400" font-stretch="normal" font-size="64" text-anchor="start" direction="ltr" writing-mode="lr-tb" unicode-bidi="normal" text-decoration="none" transform="matrix(1 0 0 1 999.577 1863)">images</text><text fill="#7F7F7F" fill-opacity="1" font-family="Avenir Next,Avenir Next_MSFontService,sans-serif" font-style="italic" font-variant="normal" font-weight="400" font-stretch="normal" font-size="64" text-anchor="start" direction="ltr" writing-mode="lr-tb" unicode-bidi="normal" text-decoration="none" transform="matrix(1 0 0 1 1694.2 1748)">download all the images that match </text><text fill="#7F7F7F" fill-opacity="1" font-family="Avenir Next,Avenir Next_MSFontService,sans-serif" font-style="italic" font-variant="normal" font-weight="400" font-stretch="normal" font-size="64" text-anchor="start" direction="ltr" writing-mode="lr-tb" unicode-bidi="normal" text-decoration="none" transform="matrix(1 0 0 1 1694.2 1825)">cloud coverage threshold with every </text><text fill="#7F7F7F" fill-opacity="1" font-family="Avenir Next,Avenir Next_MSFontService,sans-serif" font-style="italic" font-variant="normal" font-weight="400" font-stretch="normal" font-size="64" text-anchor="start" direction="ltr" writing-mode="lr-tb" unicode-bidi="normal" text-decoration="none" transform="matrix(1 0 0 1 1694.2 1902)">mask: built</text><text fill="#7F7F7F" fill-opacity="1" font-family="Avenir Next,Avenir Next_MSFontService,sans-serif" font-style="italic" font-variant="normal" font-weight="400" font-stretch="normal" font-size="64" text-anchor="start" direction="ltr" writing-mode="lr-tb" unicode-bidi="normal" text-decoration="none" transform="matrix(1 0 0 1 2009.3 1902)">-</text><text fill="#7F7F7F" fill-opacity="1" font-family="Avenir Next,Avenir Next_MSFontService,sans-serif" font-style="italic" font-variant="normal" font-weight="400" font-stretch="normal" font-size="64" text-anchor="start" direction="ltr" writing-mode="lr-tb" unicode-bidi="normal" text-decoration="none" transform="matrix(1 0 0 1 2029.93 1902)">up, green</text><text fill="#7F7F7F" fill-opacity="1" font-family="Avenir Next,Avenir Next_MSFontService,sans-serif" font-style="italic" font-variant="normal" font-weight="400" font-stretch="normal" font-size="64" text-anchor="start" direction="ltr" writing-mode="lr-tb" unicode-bidi="normal" text-decoration="none" transform="matrix(1 0 0 1 2309.88 1902)">-</text><text fill="#7F7F7F" fill-opacity="1" font-family="Avenir Next,Avenir Next_MSFontService,sans-serif" font-style="italic" font-variant="normal" font-weight="400" font-stretch="normal" font-size="64" text-anchor="start" direction="ltr" writing-mode="lr-tb" unicode-bidi="normal" text-decoration="none" transform="matrix(1 0 0 1 2330.5 1902)">area, water</text><path d="M0 0 298.385 0.000360892" stroke="#D9D9D9" stroke-width="4.58333" stroke-linecap="butt" stroke-linejoin="miter" stroke-miterlimit="8" stroke-opacity="1" fill="none" fill-rule="evenodd" transform="matrix(1 0 0 -1 1376.5 1807.5)"/><path d="M846 2100.94C846 2067.28 873.285 2040 906.942 2040L1305.06 2040C1338.72 2040 1366 2067.28 1366 2100.94L1366 2196.06C1366 2229.72 1338.72 2257 1305.06 2257L906.942 2257C873.285 2257 846 2229.72 846 2196.06Z" fill="#7F7F7F" fill-rule="evenodd" fill-opacity="1"/><text fill="#FFFFFF" fill-opacity="1" font-family="Avenir Next,Avenir Next_MSFontService,sans-serif" font-style="normal" font-variant="normal" font-weight="400" font-stretch="normal" font-size="64" text-anchor="start" direction="ltr" writing-mode="lr-tb" unicode-bidi="normal" text-decoration="none" transform="matrix(1 0 0 1 952.896 2128)">aggregate </text><text fill="#FFFFFF" fill-opacity="1" font-family="Avenir Next,Avenir Next_MSFontService,sans-serif" font-style="normal" font-variant="normal" font-weight="400" font-stretch="normal" font-size="64" text-anchor="start" direction="ltr" writing-mode="lr-tb" unicode-bidi="normal" text-decoration="none" transform="matrix(1 0 0 1 999.577 2205)">images</text><text fill="#7F7F7F" fill-opacity="1" font-family="Avenir Next,Avenir Next_MSFontService,sans-serif" font-style="italic" font-variant="normal" font-weight="400" font-stretch="normal" font-size="64" text-anchor="start" direction="ltr" writing-mode="lr-tb" unicode-bidi="normal" text-decoration="none" transform="matrix(1 0 0 1 1694.2 2089)">aggregate the masks into one image </text><text fill="#7F7F7F" fill-opacity="1" font-family="Avenir Next,Avenir Next_MSFontService,sans-serif" font-style="italic" font-variant="normal" font-weight="400" font-stretch="normal" font-size="64" text-anchor="start" direction="ltr" writing-mode="lr-tb" unicode-bidi="normal" text-decoration="none" transform="matrix(1 0 0 1 1694.2 2166)">with &lt; 5% unclassified by priority and </text><text fill="#7F7F7F" fill-opacity="1" font-family="Avenir Next,Avenir Next_MSFontService,sans-serif" font-style="italic" font-variant="normal" font-weight="400" font-stretch="normal" font-size="64" text-anchor="start" direction="ltr" writing-mode="lr-tb" unicode-bidi="normal" text-decoration="none" transform="matrix(1 0 0 1 1694.2 2243)">temporal aggregation</text><path d="M0 0 298.385 0.000360892" stroke="#D9D9D9" stroke-width="4.58333" stroke-linecap="butt" stroke-linejoin="miter" stroke-miterlimit="8" stroke-opacity="1" fill="none" fill-rule="evenodd" transform="matrix(1 0 0 -1 1376.5 2149.5)"/><path d="M703 892C703 866.043 724.043 845 750 845L942 845C967.958 845 989 866.043 989 892L989 892C989 917.958 967.957 939 942 939L750 939C724.043 939 703 917.957 703 892Z" fill="#E97132" fill-rule="evenodd" fill-opacity="1"/><text fill="#FFFFFF" fill-opacity="1" font-family="Avenir Next,Avenir Next_MSFontService,sans-serif" font-style="normal" font-variant="normal" font-weight="400" font-stretch="normal" font-size="46" text-anchor="start" direction="ltr" writing-mode="lr-tb" unicode-bidi="normal" text-decoration="none" transform="matrix(1 0 0 1 731.725 905)">1</text><text fill="#FFFFFF" fill-opacity="1" font-family="Avenir Next,Avenir Next_MSFontService,sans-serif" font-style="normal" font-variant="normal" font-weight="400" font-stretch="normal" font-size="28" text-anchor="start" direction="ltr" writing-mode="lr-tb" unicode-bidi="normal" text-decoration="none" transform="matrix(1 0 0 1 758.079 905)">st</text><text fill="#FFFFFF" fill-opacity="1" font-family="Avenir Next,Avenir Next_MSFontService,sans-serif" font-style="normal" font-variant="normal" font-weight="400" font-stretch="normal" font-size="46" text-anchor="start" direction="ltr" writing-mode="lr-tb" unicode-bidi="normal" text-decoration="none" transform="matrix(1 0 0 1 790.162 905)">Request</text><path d="M703 1237.5C703 1212.37 723.371 1192 748.5 1192L943.5 1192C968.629 1192 989 1212.37 989 1237.5 989 1262.63 968.629 1283 943.5 1283L748.5 1283C723.371 1283 703 1262.63 703 1237.5Z" fill="#E97132" fill-rule="evenodd" fill-opacity="1"/><text fill="#FFFFFF" fill-opacity="1" font-family="Avenir Next,Avenir Next_MSFontService,sans-serif" font-style="normal" font-variant="normal" font-weight="400" font-stretch="normal" font-size="48" text-anchor="start" direction="ltr" writing-mode="lr-tb" unicode-bidi="normal" text-decoration="none" transform="matrix(1 0 0 1 719.98 1251)">2</text><text fill="#FFFFFF" fill-opacity="1" font-family="Avenir Next,Avenir Next_MSFontService,sans-serif" font-style="normal" font-variant="normal" font-weight="400" font-stretch="normal" font-size="28" text-anchor="start" direction="ltr" writing-mode="lr-tb" unicode-bidi="normal" text-decoration="none" transform="matrix(1 0 0 1 748.053 1251)">nd</text><text fill="#FFFFFF" fill-opacity="1" font-family="Avenir Next,Avenir Next_MSFontService,sans-serif" font-style="normal" font-variant="normal" font-weight="400" font-stretch="normal" font-size="48" text-anchor="start" direction="ltr" writing-mode="lr-tb" unicode-bidi="normal" text-decoration="none" transform="matrix(1 0 0 1 793.887 1251)">Request</text><path d="M703 1934.5C703 1909.37 723.371 1889 748.5 1889L1108.5 1889C1133.63 1889 1154 1909.37 1154 1934.5 1154 1959.63 1133.63 1980 1108.5 1980L748.5 1980C723.371 1980 703 1959.63 703 1934.5Z" fill="#E97132" fill-rule="evenodd" fill-opacity="1"/><text fill="#FFFFFF" fill-opacity="1" font-family="Avenir Next,Avenir Next_MSFontService,sans-serif" font-style="normal" font-variant="normal" font-weight="400" font-stretch="normal" font-size="46" text-anchor="start" direction="ltr" writing-mode="lr-tb" unicode-bidi="normal" text-decoration="none" transform="matrix(1 0 0 1 736.294 1947)">3</text><text fill="#FFFFFF" fill-opacity="1" font-family="Avenir Next,Avenir Next_MSFontService,sans-serif" font-style="normal" font-variant="normal" font-weight="400" font-stretch="normal" font-size="28" text-anchor="start" direction="ltr" writing-mode="lr-tb" unicode-bidi="normal" text-decoration="none" transform="matrix(1 0 0 1 762.648 1947)">rd</text><text fill="#FFFFFF" fill-opacity="1" font-family="Avenir Next,Avenir Next_MSFontService,sans-serif" font-style="normal" font-variant="normal" font-weight="400" font-stretch="normal" font-size="46" text-anchor="start" direction="ltr" writing-mode="lr-tb" unicode-bidi="normal" text-decoration="none" transform="matrix(1 0 0 1 790.148 1947)">, 4</text><text fill="#FFFFFF" fill-opacity="1" font-family="Avenir Next,Avenir Next_MSFontService,sans-serif" font-style="normal" font-variant="normal" font-weight="400" font-stretch="normal" font-size="28" text-anchor="start" direction="ltr" writing-mode="lr-tb" unicode-bidi="normal" text-decoration="none" transform="matrix(1 0 0 1 839.992 1947)">th</text><text fill="#FFFFFF" fill-opacity="1" font-family="Avenir Next,Avenir Next_MSFontService,sans-serif" font-style="normal" font-variant="normal" font-weight="400" font-stretch="normal" font-size="46" text-anchor="start" direction="ltr" writing-mode="lr-tb" unicode-bidi="normal" text-decoration="none" transform="matrix(1 0 0 1 864.627 1947)">, 5</text><text fill="#FFFFFF" fill-opacity="1" font-family="Avenir Next,Avenir Next_MSFontService,sans-serif" font-style="normal" font-variant="normal" font-weight="400" font-stretch="normal" font-size="28" text-anchor="start" direction="ltr" writing-mode="lr-tb" unicode-bidi="normal" text-decoration="none" transform="matrix(1 0 0 1 914.471 1947)">th</text><text fill="#FFFFFF" fill-opacity="1" font-family="Avenir Next,Avenir Next_MSFontService,sans-serif" font-style="normal" font-variant="normal" font-weight="400" font-stretch="normal" font-size="46" text-anchor="start" direction="ltr" writing-mode="lr-tb" unicode-bidi="normal" text-decoration="none" transform="matrix(1 0 0 1 950.565 1947)">Request</text><path d="M3219 2079.29C3219 2053.73 3239.73 2033 3265.29 2033L3351.71 2033C3377.27 2033 3398 2053.73 3398 2079.29L3398 2164.71C3398 2190.27 3377.27 2211 3351.71 2211L3265.29 2211C3239.73 2211 3219 2190.27 3219 2164.71Z" fill="#404040" fill-rule="evenodd" fill-opacity="1"/><g><g><g><path d="M59.0001 0C26.4152 0 0 26.4155 0 59.0001 0 91.5848 26.4152 118 59.0001 118 91.585 118 118 91.5848 118 59.0001 118 26.4155 91.585 0 59.0001 0ZM15.3914 59.0001C15.3914 34.9154 34.9159 15.3914 59.0001 15.3914 68.2627 15.3914 76.8491 18.2817 83.9113 23.2059L23.2057 83.9113C18.2815 76.8491 15.3914 68.2627 15.3914 59.0001ZM59.0001 102.609C49.7376 102.609 41.1512 99.7185 34.0889 94.7943L94.7943 34.0889C99.7185 41.1512 102.609 49.7376 102.609 59.0001 102.609 83.0844 83.0844 102.609 59.0001 102.609Z" fill="#FFFFFF" fill-rule="nonzero" fill-opacity="1" transform="matrix(1.00847 0 0 1 3249 2063)"/></g></g></g><path d="M3000 2079.29C3000 2053.73 3020.73 2033 3046.29 2033L3132.71 2033C3158.27 2033 3179 2053.73 3179 2079.29L3179 2164.71C3179 2190.27 3158.27 2211 3132.71 2211L3046.29 2211C3020.73 2211 3000 2190.27 3000 2164.71Z" fill="#F2F2F2" fill-rule="evenodd" fill-opacity="1"/><g><g><g><path d="M80.0715 98.3335C95.5881 98.3335 108.167 85.9027 108.167 70.5686 108.167 58.4155 100.266 48.0863 89.2628 44.3237 87.6993 30.4525 75.795 19.6667 61.3415 19.6667 45.8248 19.6667 33.2461 32.0974 33.2461 47.4315 33.2461 50.8232 33.8615 54.0726 34.9879 57.0772 33.6669 56.8206 32.3017 56.6863 30.9048 56.6863 19.2674 56.6863 9.83335 66.0093 9.83335 77.5099 9.83335 89.0105 19.2674 98.3335 30.9048 98.3335L80.0715 98.3335Z" fill="#000000" fill-rule="nonzero" fill-opacity="1" transform="matrix(1.05932 0 0 1 3027 2063)"/></g></g></g><path d="M3438 2079.29C3438 2053.73 3458.73 2033 3484.29 2033L3570.71 2033C3596.27 2033 3617 2053.73 3617 2079.29L3617 2164.71C3617 2190.27 3596.27 2211 3570.71 2211L3484.29 2211C3458.73 2211 3438 2190.27 3438 2164.71Z" fill="#F8948B" fill-rule="evenodd" fill-opacity="1"/><g><g><g><path d="M0 96.0958 14.1354 96.0958 14.1354 1.50765C14.1354 0.681803 14.8172 0 15.6431 0L63.5229 0C64.3487 0 65.0305 0.681803 65.0305 1.50765L65.0305 36.971 107.398 36.971C108.224 36.971 108.906 37.6528 108.906 38.4786L108.906 96.0862 118 96.0862 118 108.56 0 108.56 0 96.0958ZM26.235 14.2314 36.0299 14.2314C36.3276 14.2314 36.5773 14.4811 36.5773 14.7788L36.5773 26.6479C36.5773 26.9456 36.3276 27.1953 36.0299 27.1953L26.235 27.1953C25.9373 27.1953 25.6876 26.9456 25.6876 26.6479L25.6876 14.7788C25.6876 14.4811 25.9373 14.2314 26.235 14.2314ZM42.8287 73.2698 52.6237 73.2698C52.9213 73.2698 53.171 73.5195 53.171 73.8172L53.171 85.6863C53.171 85.984 52.9213 86.2337 52.6237 86.2337L42.8287 86.2337C42.5311 86.2337 42.2814 85.984 42.2814 85.6863L42.2814 73.8172C42.2814 73.5099 42.5311 73.2698 42.8287 73.2698ZM26.235 73.2698 36.0299 73.2698C36.3276 73.2698 36.5773 73.5195 36.5773 73.8172L36.5773 85.6863C36.5773 85.984 36.3276 86.2337 36.0299 86.2337L26.235 86.2337C25.9373 86.2337 25.6876 85.984 25.6876 85.6863L25.6876 73.8172C25.6876 73.5099 25.9373 73.2698 26.235 73.2698ZM42.8287 53.5839 52.6237 53.5839C52.9213 53.5839 53.171 53.8336 53.171 54.1313L53.171 66.0004C53.171 66.2981 52.9213 66.5478 52.6237 66.5478L42.8287 66.5478C42.5311 66.5478 42.2814 66.2981 42.2814 66.0004L42.2814 54.1409C42.2814 53.8336 42.5311 53.5839 42.8287 53.5839ZM26.235 53.5839 36.0299 53.5839C36.3276 53.5839 36.5773 53.8336 36.5773 54.1313L36.5773 66.0004C36.5773 66.2981 36.3276 66.5478 36.0299 66.5478L26.235 66.5478C25.9373 66.5478 25.6876 66.2981 25.6876 66.0004L25.6876 54.1409C25.6876 53.8336 25.9373 53.5839 26.235 53.5839ZM42.8287 33.9077 52.6237 33.9077C52.9213 33.9077 53.171 34.1574 53.171 34.4551L53.171 46.3242C53.171 46.6219 52.9213 46.8715 52.6237 46.8715L42.8287 46.8715C42.5311 46.8715 42.2814 46.6219 42.2814 46.3242L42.2814 34.4551C42.2814 34.1574 42.5311 33.9077 42.8287 33.9077ZM26.235 33.9077 36.0299 33.9077C36.3276 33.9077 36.5773 34.1574 36.5773 34.4551L36.5773 46.3242C36.5773 46.6219 36.3276 46.8715 36.0299 46.8715L26.235 46.8715C25.9373 46.8715 25.6876 46.6219 25.6876 46.3242L25.6876 34.4551C25.6876 34.1574 25.9373 33.9077 26.235 33.9077ZM42.8287 14.2314 52.6237 14.2314C52.9213 14.2314 53.171 14.4811 53.171 14.7788L53.171 26.6479C53.171 26.9456 52.9213 27.1953 52.6237 27.1953L42.8287 27.1953C42.5311 27.1953 42.2814 26.9456 42.2814 26.6479L42.2814 14.7788C42.2814 14.4811 42.5311 14.2314 42.8287 14.2314ZM22.2498 7.02929 56.7433 7.02929C57.3387 7.02929 57.8284 7.61507 57.8284 8.32568L57.8284 90.7854C57.8284 91.496 57.3387 92.0818 56.7433 92.0818L22.2498 92.0818C21.6544 92.0818 21.1647 91.496 21.1647 90.7854L21.1647 8.32568C21.1647 7.61507 21.6544 7.02929 22.2498 7.02929ZM69.7263 51.3081 79.5213 51.3081C79.8189 51.3081 80.0686 51.5577 80.0686 51.8554L80.0686 63.7246C80.0686 64.0222 79.8189 64.2719 79.5213 64.2719L69.7263 64.2719C69.4287 64.2719 69.179 64.0222 69.179 63.7246L69.179 51.8554C69.179 51.5577 69.4287 51.3081 69.7263 51.3081ZM86.3201 73.2698 96.115 73.2698C96.4127 73.2698 96.6624 73.5195 96.6624 73.8172L96.6624 85.6863C96.6624 85.984 96.4127 86.2337 96.115 86.2337L86.3201 86.2337C86.0224 86.2337 85.7727 85.984 85.7727 85.6863L85.7727 73.8172C85.7727 73.5099 86.0224 73.2698 86.3201 73.2698ZM69.7263 73.2698 79.5213 73.2698C79.8189 73.2698 80.0686 73.5195 80.0686 73.8172L80.0686 85.6863C80.0686 85.984 79.8189 86.2337 79.5213 86.2337L69.7263 86.2337C69.4287 86.2337 69.179 85.984 69.179 85.6863L69.179 73.8172C69.179 73.5099 69.4287 73.2698 69.7263 73.2698ZM86.3201 51.3081 96.115 51.3081C96.4127 51.3081 96.6624 51.5577 96.6624 51.8554L96.6624 63.7246C96.6624 64.0222 96.4127 64.2719 96.115 64.2719L86.3201 64.2719C86.0224 64.2719 85.7727 64.0222 85.7727 63.7246L85.7727 51.8554C85.7727 51.5577 86.0224 51.3081 86.3201 51.3081ZM66.1253 44.0003 100.619 44.0003C101.214 44.0003 101.704 44.5861 101.704 45.2967L101.704 90.7854C101.704 91.496 101.214 92.0818 100.619 92.0818L66.1253 92.0818C65.5299 92.0818 65.0402 91.496 65.0402 90.7854L65.0402 45.2967C65.0402 44.5861 65.5299 44.0003 66.1253 44.0003Z" fill="#750805" fill-rule="evenodd" fill-opacity="1" transform="matrix(1 0 0 1 3468 2067.71)"/></g></g></g><path d="M3657 2079.29C3657 2053.73 3677.73 2033 3703.29 2033L3788.71 2033C3814.27 2033 3835 2053.73 3835 2079.29L3835 2164.71C3835 2190.27 3814.27 2211 3788.71 2211L3703.29 2211C3677.73 2211 3657 2190.27 3657 2164.71Z" fill="#C2F1C8" fill-rule="evenodd" fill-opacity="1"/><g><g><g><path d="M3794.35 2117.06C3794.35 2110.86 3791.87 2105.24 3787.86 2101.12 3788 2100.04 3788.11 2098.95 3788.11 2097.83 3788.11 2085.35 3778.74 2075.07 3766.66 2073.6 3760.59 2067.09 3751.96 2063 3742.36 2063 3723.98 2063 3709.09 2077.89 3709.09 2096.27 3709.09 2096.37 3709.11 2096.46 3709.11 2096.56 3702.2 2101.23 3697.65 2109.13 3697.65 2118.1 3697.65 2130.4 3706.2 2140.67 3717.67 2143.38 3719.99 2149.07 3725.58 2153.08 3732.1 2153.08 3734.54 2153.08 3736.83 2152.51 3738.88 2151.52L3738.88 2181 3756.75 2181 3756.75 2161.64 3763.72 2149.74C3770.85 2149.22 3776.88 2144.72 3779.56 2138.44 3788.2 2135.17 3794.35 2126.84 3794.35 2117.06ZM3747.06 2141.87C3747.22 2142.09 3747.37 2142.29 3747.53 2142.5L3746.74 2142.82C3746.86 2142.51 3746.97 2142.19 3747.06 2141.87ZM3752.65 2156.43 3752.65 2147.08C3754.31 2148.09 3756.13 2148.84 3758.07 2149.3L3752.65 2156.43Z" fill="#196B24" fill-rule="nonzero" fill-opacity="1"/></g></g></g><path d="M3875 2079.29C3875 2053.73 3895.73 2033 3921.29 2033L4007.71 2033C4033.27 2033 4054 2053.73 4054 2079.29L4054 2164.71C4054 2190.27 4033.27 2211 4007.71 2211L3921.29 2211C3895.73 2211 3875 2190.27 3875 2164.71Z" fill="#C1E5F5" fill-rule="evenodd" fill-opacity="1"/><g><g><g><path d="M12.2917 27.0416 15.3209 30.0709C18.1034 32.8534 21.8774 34.4166 25.8125 34.4166 29.7476 34.4166 33.5215 32.8534 36.304 30.0709L37.4459 28.9291C40.2284 26.1465 44.0024 24.5833 47.9375 24.5833 51.8728 24.5833 55.6463 26.1465 58.4291 28.9291L59.5708 30.0709C62.3536 32.8534 66.1271 34.4166 70.0624 34.4166 73.9977 34.4166 77.7713 32.8534 80.5541 30.0709L81.6958 28.9291C84.4786 26.1465 88.2521 24.5833 92.1874 24.5833 96.1227 24.5833 99.8963 26.1465 102.679 28.9291L105.708 31.9583M12.2917 56.5416 15.3209 59.5708C18.1034 62.3536 21.8774 63.9166 25.8125 63.9166 29.7476 63.9166 33.5215 62.3536 36.304 59.5708L37.4459 58.4291C40.2284 55.6463 44.0024 54.0833 47.9375 54.0833 51.8728 54.0833 55.6463 55.6463 58.4291 58.4291L59.5708 59.5708C62.3536 62.3536 66.1271 63.9166 70.0624 63.9166 73.9977 63.9166 77.7713 62.3536 80.5541 59.5708L81.6958 58.4291C84.4786 55.6463 88.2521 54.0833 92.1874 54.0833 96.1227 54.0833 99.8963 55.6463 102.679 58.4291L105.708 61.4583M12.2917 86.0416 15.3209 89.0708C18.1034 91.8536 21.8774 93.4166 25.8125 93.4166 29.7476 93.4166 33.5215 91.8536 36.304 89.0708L37.4459 87.9291C40.2284 85.1463 44.0024 83.5833 47.9375 83.5833 51.8728 83.5833 55.6463 85.1463 58.4291 87.9291L59.5708 89.0708C62.3536 91.8536 66.1271 93.4166 70.0624 93.4166 73.9977 93.4166 77.7713 91.8536 80.5541 89.0708L81.6958 87.9291C84.4786 85.1463 88.2521 83.5833 92.1874 83.5833 96.1227 83.5833 99.8963 85.1463 102.679 87.9291L105.708 90.9583" stroke="#104862" stroke-width="9.83333" stroke-linecap="round" stroke-linejoin="round" stroke-miterlimit="4" stroke-opacity="1" fill="none" fill-rule="nonzero" transform="matrix(1 0 0 1 3906 2063)"/></g></g></g><path d="M3000 1750.29C3000 1724.73 3020.73 1704 3046.29 1704L3132.71 1704C3158.27 1704 3179 1724.73 3179 1750.29L3179 1835.71C3179 1861.27 3158.27 1882 3132.71 1882L3046.29 1882C3020.73 1882 3000 1861.27 3000 1835.71Z" fill="#F8948B" fill-rule="evenodd" fill-opacity="1"/><g><g><g><path d="M0 96.0961 14.1354 96.0961 14.1354 1.50765C14.1354 0.681805 14.8173 0 15.6431 0L63.5231 0C64.3489 0 65.0307 0.681805 65.0307 1.50765L65.0307 36.9711 107.399 36.9711C108.225 36.9711 108.906 37.6529 108.906 38.4788L108.906 96.0865 118 96.0865 118 108.561 0 108.561 0 96.0961ZM26.2351 14.2315 36.03 14.2315C36.3277 14.2315 36.5774 14.4812 36.5774 14.7788L36.5774 26.648C36.5774 26.9457 36.3277 27.1954 36.03 27.1954L26.2351 27.1954C25.9374 27.1954 25.6877 26.9457 25.6877 26.648L25.6877 14.7788C25.6877 14.4812 25.9374 14.2315 26.2351 14.2315ZM42.8289 73.27 52.6238 73.27C52.9215 73.27 53.1712 73.5197 53.1712 73.8174L53.1712 85.6866C53.1712 85.9842 52.9215 86.2339 52.6238 86.2339L42.8289 86.2339C42.5312 86.2339 42.2815 85.9842 42.2815 85.6866L42.2815 73.8174C42.2815 73.5101 42.5312 73.27 42.8289 73.27ZM26.2351 73.27 36.03 73.27C36.3277 73.27 36.5774 73.5197 36.5774 73.8174L36.5774 85.6866C36.5774 85.9842 36.3277 86.2339 36.03 86.2339L26.2351 86.2339C25.9374 86.2339 25.6877 85.9842 25.6877 85.6866L25.6877 73.8174C25.6877 73.5101 25.9374 73.27 26.2351 73.27ZM42.8289 53.5841 52.6238 53.5841C52.9215 53.5841 53.1712 53.8338 53.1712 54.1315L53.1712 66.0006C53.1712 66.2983 52.9215 66.548 52.6238 66.548L42.8289 66.548C42.5312 66.548 42.2815 66.2983 42.2815 66.0006L42.2815 54.1411C42.2815 53.8338 42.5312 53.5841 42.8289 53.5841ZM26.2351 53.5841 36.03 53.5841C36.3277 53.5841 36.5774 53.8338 36.5774 54.1315L36.5774 66.0006C36.5774 66.2983 36.3277 66.548 36.03 66.548L26.2351 66.548C25.9374 66.548 25.6877 66.2983 25.6877 66.0006L25.6877 54.1411C25.6877 53.8338 25.9374 53.5841 26.2351 53.5841ZM42.8289 33.9078 52.6238 33.9078C52.9215 33.9078 53.1712 34.1575 53.1712 34.4552L53.1712 46.3243C53.1712 46.622 52.9215 46.8717 52.6238 46.8717L42.8289 46.8717C42.5312 46.8717 42.2815 46.622 42.2815 46.3243L42.2815 34.4552C42.2815 34.1575 42.5312 33.9078 42.8289 33.9078ZM26.2351 33.9078 36.03 33.9078C36.3277 33.9078 36.5774 34.1575 36.5774 34.4552L36.5774 46.3243C36.5774 46.622 36.3277 46.8717 36.03 46.8717L26.2351 46.8717C25.9374 46.8717 25.6877 46.622 25.6877 46.3243L25.6877 34.4552C25.6877 34.1575 25.9374 33.9078 26.2351 33.9078ZM42.8289 14.2315 52.6238 14.2315C52.9215 14.2315 53.1712 14.4812 53.1712 14.7788L53.1712 26.648C53.1712 26.9457 52.9215 27.1954 52.6238 27.1954L42.8289 27.1954C42.5312 27.1954 42.2815 26.9457 42.2815 26.648L42.2815 14.7788C42.2815 14.4812 42.5312 14.2315 42.8289 14.2315ZM22.2499 7.02931 56.7435 7.02931C57.3388 7.02931 57.8286 7.61509 57.8286 8.3257L57.8286 90.7857C57.8286 91.4963 57.3388 92.0821 56.7435 92.0821L22.2499 92.0821C21.6545 92.0821 21.1648 91.4963 21.1648 90.7857L21.1648 8.3257C21.1648 7.61509 21.6545 7.02931 22.2499 7.02931ZM69.7266 51.3082 79.5215 51.3082C79.8192 51.3082 80.0689 51.5579 80.0689 51.8556L80.0689 63.7248C80.0689 64.0224 79.8192 64.2721 79.5215 64.2721L69.7266 64.2721C69.4289 64.2721 69.1792 64.0224 69.1792 63.7248L69.1792 51.8556C69.1792 51.5579 69.4289 51.3082 69.7266 51.3082ZM86.3203 73.27 96.1153 73.27C96.413 73.27 96.6627 73.5197 96.6627 73.8174L96.6627 85.6866C96.6627 85.9842 96.413 86.2339 96.1153 86.2339L86.3203 86.2339C86.0227 86.2339 85.773 85.9842 85.773 85.6866L85.773 73.8174C85.773 73.5101 86.0227 73.27 86.3203 73.27ZM69.7266 73.27 79.5215 73.27C79.8192 73.27 80.0689 73.5197 80.0689 73.8174L80.0689 85.6866C80.0689 85.9842 79.8192 86.2339 79.5215 86.2339L69.7266 86.2339C69.4289 86.2339 69.1792 85.9842 69.1792 85.6866L69.1792 73.8174C69.1792 73.5101 69.4289 73.27 69.7266 73.27ZM86.3203 51.3082 96.1153 51.3082C96.413 51.3082 96.6627 51.5579 96.6627 51.8556L96.6627 63.7248C96.6627 64.0224 96.413 64.2721 96.1153 64.2721L86.3203 64.2721C86.0227 64.2721 85.773 64.0224 85.773 63.7248L85.773 51.8556C85.773 51.5579 86.0227 51.3082 86.3203 51.3082ZM66.1255 44.0004 100.619 44.0004C101.214 44.0004 101.704 44.5862 101.704 45.2968L101.704 90.7857C101.704 91.4963 101.214 92.0821 100.619 92.0821L66.1255 92.0821C65.5301 92.0821 65.0404 91.4963 65.0404 90.7857L65.0404 45.2968C65.0404 44.5862 65.5301 44.0004 66.1255 44.0004Z" fill="#750805" fill-rule="evenodd" fill-opacity="1" transform="matrix(1.00847 0 0 1 3030 1738.71)"/></g></g></g><path d="M3210 1750.29C3210 1724.73 3230.73 1704 3256.29 1704L3342.71 1704C3368.27 1704 3389 1724.73 3389 1750.29L3389 1835.71C3389 1861.27 3368.27 1882 3342.71 1882L3256.29 1882C3230.73 1882 3210 1861.27 3210 1835.71Z" fill="#C2F1C8" fill-rule="evenodd" fill-opacity="1"/><g><g><g><path d="M3347.35 1788.06C3347.35 1781.86 3344.87 1776.24 3340.86 1772.12 3341 1771.04 3341.11 1769.95 3341.11 1768.83 3341.11 1756.35 3331.74 1746.08 3319.66 1744.6 3313.59 1738.09 3304.96 1734 3295.36 1734 3276.98 1734 3262.09 1748.89 3262.09 1767.27 3262.09 1767.37 3262.11 1767.46 3262.11 1767.56 3255.2 1772.23 3250.65 1780.13 3250.65 1789.1 3250.65 1801.4 3259.2 1811.67 3270.67 1814.38 3272.99 1820.07 3278.58 1824.08 3285.1 1824.08 3287.54 1824.08 3289.83 1823.51 3291.88 1822.52L3291.88 1852 3309.75 1852 3309.75 1832.64 3316.72 1820.74C3323.85 1820.22 3329.88 1815.72 3332.56 1809.44 3341.2 1806.17 3347.35 1797.84 3347.35 1788.06ZM3300.06 1812.87C3300.22 1813.09 3300.37 1813.29 3300.53 1813.5L3299.74 1813.82C3299.86 1813.51 3299.97 1813.19 3300.06 1812.87ZM3305.65 1827.43 3305.65 1818.08C3307.31 1819.09 3309.13 1819.84 3311.07 1820.3L3305.65 1827.43Z" fill="#196B24" fill-rule="nonzero" fill-opacity="1"/></g></g></g><path d="M3436 1750.29C3436 1724.73 3456.73 1704 3482.29 1704L3568.71 1704C3594.27 1704 3615 1724.73 3615 1750.29L3615 1835.71C3615 1861.27 3594.27 1882 3568.71 1882L3482.29 1882C3456.73 1882 3436 1861.27 3436 1835.71Z" fill="#C1E5F5" fill-rule="evenodd" fill-opacity="1"/><g><g><g><path d="M12.2917 27.0417 15.321 30.071C18.1035 32.8535 21.8774 34.4167 25.8126 34.4167 29.7477 34.4167 33.5216 32.8535 36.3042 30.071L37.446 28.9291C40.2285 26.1466 44.0025 24.5834 47.9376 24.5834 51.8729 24.5834 55.6465 26.1466 58.4293 28.9291L59.571 30.071C62.3538 32.8535 66.1273 34.4167 70.0627 34.4167 73.998 34.4167 77.7715 32.8535 80.5544 30.071L81.696 28.9291C84.4788 26.1466 88.2524 24.5834 92.1877 24.5834 96.123 24.5834 99.8966 26.1466 102.679 28.9291L105.709 31.9584M12.2917 56.5418 15.321 59.571C18.1035 62.3538 21.8774 63.9168 25.8126 63.9168 29.7477 63.9168 33.5216 62.3538 36.3042 59.571L37.446 58.4293C40.2285 55.6465 44.0025 54.0835 47.9376 54.0835 51.8729 54.0835 55.6465 55.6465 58.4293 58.4293L59.571 59.571C62.3538 62.3538 66.1273 63.9168 70.0627 63.9168 73.998 63.9168 77.7715 62.3538 80.5544 59.571L81.696 58.4293C84.4788 55.6465 88.2524 54.0835 92.1877 54.0835 96.123 54.0835 99.8966 55.6465 102.679 58.4293L105.709 61.4585M12.2917 86.0419 15.321 89.071C18.1035 91.8539 21.8774 93.4169 25.8126 93.4169 29.7477 93.4169 33.5216 91.8539 36.3042 89.071L37.446 87.9294C40.2285 85.1465 44.0025 83.5835 47.9376 83.5835 51.8729 83.5835 55.6465 85.1465 58.4293 87.9294L59.571 89.071C62.3538 91.8539 66.1273 93.4169 70.0627 93.4169 73.998 93.4169 77.7715 91.8539 80.5544 89.071L81.696 87.9294C84.4788 85.1465 88.2524 83.5835 92.1877 83.5835 96.123 83.5835 99.8966 85.1465 102.679 87.9294L105.709 90.9585" stroke="#104862" stroke-width="9.83335" stroke-linecap="round" stroke-linejoin="round" stroke-miterlimit="4" stroke-opacity="1" fill="none" fill-rule="nonzero" transform="matrix(1.00847 0 0 1 3466 1734)"/></g></g></g><path d="M3000 1089.29C3000 1063.73 3020.73 1043 3046.29 1043L3132.71 1043C3158.27 1043 3179 1063.73 3179 1089.29L3179 1174.71C3179 1200.27 3158.27 1221 3132.71 1221L3046.29 1221C3020.73 1221 3000 1200.27 3000 1174.71Z" fill="#F2F2F2" fill-rule="evenodd" fill-opacity="1"/><g><g><g><path d="M80.0715 98.3335C95.5881 98.3335 108.167 85.9027 108.167 70.5686 108.167 58.4155 100.266 48.0863 89.2628 44.3237 87.6993 30.4525 75.795 19.6667 61.3415 19.6667 45.8248 19.6667 33.2461 32.0974 33.2461 47.4315 33.2461 50.8232 33.8615 54.0726 34.9879 57.0772 33.6669 56.8206 32.3017 56.6863 30.9048 56.6863 19.2674 56.6863 9.83335 66.0093 9.83335 77.5099 9.83335 89.0105 19.2674 98.3335 30.9048 98.3335L80.0715 98.3335Z" fill="#000000" fill-rule="nonzero" fill-opacity="1" transform="matrix(1.05932 0 0 1 3027 1073)"/></g></g></g></g></g></svg>